<svg version="1.1" id="Layer_1" xmlns="http://www.w3.org/2000/svg" xmlns:xlink="http://www.w3.org/1999/xlink" x="0px" y="0px" viewBox="0 0 155 18" style="enable-background:new 0 0 155 18;" xml:space="preserve">
				<g>
					<path d="M6.9,5.7V5.3c0-1-0.4-1.7-1.2-1.7C4.8,3.6,4.4,4.3,4.4,5c0,3.2,6.9,1.6,6.9,7.6c0,3.4-2,5-5.7,5c-3.5,0-5.4-1.2-5.4-4.6
						v-0.6h4.1v0.4c0,1.4,0.6,1.9,1.4,1.9c0.9,0,1.4-0.7,1.4-1.6c0-3.2-6.6-1.6-6.6-7.3c0-3.3,1.7-5.1,5.3-5.1c3.7,0,5.2,1.5,5.2,5H6.9z
						"></path>
					<path d="M16.2,4.6h-3.2V1h10.6v3.6h-3.2v12.6h-4.2V4.6z"></path>
					<path d="M27.3,1h5.3l3.9,16.2h-4.5l-0.4-2.8h-3.4l-0.4,2.8h-4.5L27.3,1z M30,4.4L30,4.4l-1.2,6.9h2.4L30,4.4z"></path>
					<path d="M45.1,6c0-1.8-0.3-2.4-1.2-2.4c-1.3,0-1.4,1.2-1.4,5.6c0,4.4,0.1,5.6,1.4,5.6c1,0,1.3-0.9,1.3-4h4.1v1.2
						c0,4.5-2.7,5.6-5.4,5.6c-4.7,0-5.8-2.4-5.8-8.4c0-6.2,1.4-8.4,5.8-8.4c3.8,0,5.2,2,5.2,5.1v1h-4.1V6z"></path>
					<path d="M52,1h4.2v6.2h0L59.4,1h4.5l-4.1,7.1l4.6,9.1h-4.8l-2.5-5.6l-0.9,1.4v4.3H52V1z"></path>
					<path d="M81.3,17.2h-3.9l-0.6-0.8c-1,0.6-1.9,1.1-3.4,1.1c-2.3,0-4.3-1.3-4.3-4c0-1.6,0.8-3.1,2.6-4.1c-0.7-1-1.3-2.1-1.3-3.2
						c0-2,1.6-3.3,4-3.3c2.4,0,4,1.3,4,3.3c0,1.4-0.9,2.6-2.4,3.6l1.6,2.2c0.3-0.5,0.4-1,0.5-1.7h3.1c-0.1,1.6-0.5,3.1-1.7,4.2
						L81.3,17.2z M73.4,11.7c-0.6,0.4-0.9,1-0.9,1.4c0,0.9,0.8,1.6,1.5,1.6c0.4,0,0.9-0.2,1.2-0.5L73.4,11.7z M74.3,7.8
						C75.1,7,75.4,6.4,75.4,6c0-0.6-0.4-1-1-1s-1,0.4-1,1C73.3,6.4,73.6,6.9,74.3,7.8z"></path>
					<path d="M93.8,5.7V5.3c0-1-0.4-1.7-1.2-1.7c-0.9,0-1.3,0.7-1.3,1.4c0,3.2,6.9,1.6,6.9,7.6c0,3.4-2,5-5.7,5C89,17.5,87,16.3,87,13
						v-0.6h4.1v0.4c0,1.4,0.6,1.9,1.4,1.9c0.9,0,1.4-0.7,1.4-1.6c0-3.2-6.6-1.6-6.6-7.3c0-3.3,1.7-5.1,5.3-5.1c3.7,0,5.2,1.5,5.2,5H93.8
						z"></path>
					<path d="M100.9,1h4.2v16.2h-4.2V1z"></path>
					<path d="M107.8,14.2l5.1-9.7h-4.7V1h9.7v3l-5.2,9.7h5.2v3.4h-10V14.2z"></path>
					<path d="M120,14.2l5.1-9.7h-4.7V1h9.7v3l-5.2,9.7h5.2v3.4h-10V14.2z"></path>
					<path d="M132.8,1h4.2v12.7h5.2v3.4h-9.4V1z"></path>
					<path d="M144.7,1h9.6v3.4h-5.4v2.8h5v3.3h-5v3.2h5.6v3.4h-9.8V1z"></path>
				</g>
			</svg>